<svg width="33" height="33" viewBox="0 0 33 33" fill="none" xmlns="http://www.w3.org/2000/svg">
<path d="M30.205 16.8333C30.205 15.7933 30.1117 14.7933 29.9383 13.8333H16.125V19.5133H24.0183C23.6717 21.3399 22.6317 22.8866 21.0717 23.9266V27.6199H25.8317C28.605 25.0599 30.205 21.2999 30.205 16.8333Z" fill="#4285F4"/>
<path d="M16.125 31.1667C20.085 31.1667 23.405 29.86 25.8317 27.62L21.0717 23.9267C19.765 24.8067 18.0983 25.34 16.125 25.34C12.3117 25.34 9.07168 22.7667 7.91168 19.3H3.03168V23.0867C5.44501 27.8734 10.3917 31.1667 16.125 31.1667Z" fill="#34A853"/>
<path d="M7.91165 19.2868C7.61831 18.4068 7.44498 17.4734 7.44498 16.5001C7.44498 15.5268 7.61831 14.5934 7.91165 13.7134V9.92676H3.03165C2.03165 11.9001 1.45831 14.1268 1.45831 16.5001C1.45831 18.8734 2.03165 21.1001 3.03165 23.0734L6.83165 20.1134L7.91165 19.2868Z" fill="#FBBC05"/>
<path d="M16.125 7.67325C18.285 7.67325 20.205 8.41992 21.7383 9.85992L25.9383 5.65992C23.3917 3.28659 20.085 1.83325 16.125 1.83325C10.3917 1.83325 5.44501 5.12659 3.03168 9.92659L7.91168 13.7133C9.07168 10.2466 12.3117 7.67325 16.125 7.67325Z" fill="#EA4335"/>
</svg>
