<svg width="53" height="45" viewBox="0 0 53 45" fill="none" xmlns="http://www.w3.org/2000/svg">
<path d="M0 3.75C0 1.67578 1.67578 0 3.75 0H48.75C50.8242 0 52.5 1.67578 52.5 3.75C52.5 5.82422 50.8242 7.5 48.75 7.5H3.75C1.67578 7.5 0 5.82422 0 3.75ZM0 22.5C0 20.4258 1.67578 18.75 3.75 18.75H48.75C50.8242 18.75 52.5 20.4258 52.5 22.5C52.5 24.5742 50.8242 26.25 48.75 26.25H3.75C1.67578 26.25 0 24.5742 0 22.5ZM52.5 41.25C52.5 43.3242 50.8242 45 48.75 45H3.75C1.67578 45 0 43.3242 0 41.25C0 39.1758 1.67578 37.5 3.75 37.5H48.75C50.8242 37.5 52.5 39.1758 52.5 41.25Z" fill="black"/>
</svg>
